<svg width="34" height="34" viewBox="0 0 34 34" fill="none" xmlns="http://www.w3.org/2000/svg">
<path d="M17.0002 2.83301C9.18866 2.83301 2.8335 9.18817 2.8335 16.9997V22.8689C2.8335 24.3196 4.10425 25.4997 5.66683 25.4997H7.0835C7.45922 25.4997 7.81955 25.3504 8.08523 25.0847C8.35091 24.8191 8.50016 24.4587 8.50016 24.083V16.7971C8.50016 16.4214 8.35091 16.061 8.08523 15.7954C7.81955 15.5297 7.45922 15.3804 7.0835 15.3804H5.79716C6.58483 9.89793 11.3023 5.66634 17.0002 5.66634C22.698 5.66634 27.4155 9.89793 28.2032 15.3804H26.9168C26.5411 15.3804 26.1808 15.5297 25.9151 15.7954C25.6494 16.061 25.5002 16.4214 25.5002 16.7971V25.4997C25.5002 27.0623 24.2294 28.333 22.6668 28.333H19.8335V26.9163H14.1668V31.1663H22.6668C25.792 31.1663 28.3335 28.6248 28.3335 25.4997C29.8961 25.4997 31.1668 24.3196 31.1668 22.8689V16.9997C31.1668 9.18817 24.8117 2.83301 17.0002 2.83301Z" fill="#FFFEFE"/>
</svg>
