<svg width="34" height="34" viewBox="0 0 34 34" fill="none" xmlns="http://www.w3.org/2000/svg">
<path d="M7.58202 8.77207L8.50002 12.6821L7.58202 16.5751L10.999 18.6831L13.09 22.1001L17 21.1821L20.91 22.1001L23.001 18.6831L26.418 16.5751L25.5 12.6821L26.418 8.77207L23.018 6.66407L20.91 3.24707L17 4.18207L13.107 3.26407L10.982 6.66407L7.58202 8.77207ZM17.017 19.5501C15.2135 19.5501 13.4839 18.8336 12.2087 17.5584C10.9334 16.2831 10.217 14.5535 10.217 12.7501C10.217 10.9466 10.9334 9.21699 12.2087 7.94174C13.4839 6.6665 15.2135 5.95007 17.017 5.95007C20.757 5.95007 23.8 8.99307 23.8 12.7331C23.8 16.5071 20.757 19.5501 17.017 19.5501ZM16.983 17.8501C14.161 17.8501 11.9 15.5721 11.9 12.7501C11.9 9.94507 14.161 7.65007 16.983 7.65007C19.805 7.65007 22.1 9.94507 22.1 12.7501C22.1 15.5721 19.805 17.8501 16.983 17.8501ZM23.511 19.7201L21.335 23.5281L17.799 22.7291L22.1 32.6401L24.48 28.9001H28.73L23.511 19.7201ZM10.421 19.8391L12.546 23.6641L16.167 22.7971L11.9 32.6401L9.52002 28.9001H5.27002L10.421 19.8391Z" fill="white"/>
</svg>
