<svg width="34" height="34" viewBox="0 0 34 34" fill="none" xmlns="http://www.w3.org/2000/svg">
<path d="M12.1125 8.5085C11.1547 9.71531 10.6307 11.2093 10.625 12.75C10.625 13.0318 10.5131 13.302 10.3138 13.5013C10.1145 13.7006 9.84429 13.8125 9.5625 13.8125C5.712 13.8125 4.25 16.4985 4.25 18.0625C4.25 18.9699 4.4795 20.0132 5.18287 20.8165C5.86075 21.59 7.12725 22.3125 9.5625 22.3125H10.625C10.625 23.0371 10.6909 23.749 10.8162 24.4375H9.5625C6.68525 24.4375 4.76425 23.5663 3.58275 22.2148C2.42675 20.893 2.125 19.2801 2.125 18.0625C2.125 15.5592 4.17562 12.1869 8.5595 11.7385C8.7508 10.0639 9.41241 8.47763 10.4677 7.16338C11.8639 5.45488 14.025 4.25 17 4.25C18.8062 4.25 20.9121 4.845 22.5887 6.21775C23.9445 7.327 24.9857 8.92288 25.3534 11.0245C24.6124 10.8256 23.8537 10.7003 23.0881 10.6505C22.7704 9.55389 22.1254 8.58045 21.2394 7.86037C20.0329 6.90376 18.5397 6.3806 17 6.375C14.6625 6.375 13.1049 7.29513 12.1125 8.5085ZM31.875 22.3125C31.875 23.5683 31.6277 24.8117 31.1471 25.9719C30.6665 27.1321 29.9622 28.1862 29.0742 29.0742C28.1862 29.9622 27.1321 30.6665 25.9719 31.1471C24.8117 31.6277 23.5683 31.875 22.3125 31.875C21.0567 31.875 19.8133 31.6277 18.6531 31.1471C17.4929 30.6665 16.4388 29.9622 15.5508 29.0742C14.6628 28.1862 13.9585 27.1321 13.4779 25.9719C12.9973 24.8117 12.75 23.5683 12.75 22.3125C12.75 19.7764 13.7575 17.3441 15.5508 15.5508C17.3441 13.7575 19.7764 12.75 22.3125 12.75C24.8486 12.75 27.2809 13.7575 29.0742 15.5508C30.8675 17.3441 31.875 19.7764 31.875 22.3125ZM27.3147 18.3727C27.2161 18.2738 27.0988 18.1953 26.9697 18.1417C26.8406 18.0882 26.7023 18.0606 26.5625 18.0606C26.4227 18.0606 26.2844 18.0882 26.1553 18.1417C26.0262 18.1953 25.9089 18.2738 25.8102 18.3727L20.1875 23.9976L18.8147 22.6227C18.716 22.524 18.5987 22.4456 18.4696 22.3921C18.3405 22.3387 18.2022 22.3112 18.0625 22.3112C17.9228 22.3112 17.7845 22.3387 17.6554 22.3921C17.5263 22.4456 17.409 22.524 17.3102 22.6227C17.2115 22.7215 17.1331 22.8388 17.0796 22.9679C17.0262 23.097 16.9987 23.2353 16.9987 23.375C16.9987 23.5147 17.0262 23.653 17.0796 23.7821C17.1331 23.9112 17.2115 24.0285 17.3102 24.1273L19.4352 26.2523C19.5339 26.3512 19.6512 26.4297 19.7803 26.4833C19.9094 26.5368 20.0477 26.5644 20.1875 26.5644C20.3273 26.5644 20.4656 26.5368 20.5947 26.4833C20.7238 26.4297 20.8411 26.3512 20.9397 26.2523L27.3147 19.8773C27.4137 19.7786 27.4922 19.6613 27.5458 19.5322C27.5993 19.4031 27.6269 19.2648 27.6269 19.125C27.6269 18.9852 27.5993 18.8469 27.5458 18.7178C27.4922 18.5887 27.4137 18.4714 27.3147 18.3727Z" fill="white"/>
</svg>
