<svg width="30" height="30" viewBox="0 0 30 30" fill="none" xmlns="http://www.w3.org/2000/svg">
<circle cx="15" cy="15" r="15" fill="#1B1B1B"/>
<path d="M23.2598 10.8001C22.8619 10.0965 22.2934 9.50422 21.6066 9.07784C20.9199 8.65146 20.1369 8.40465 19.3298 8.36011C18.3786 8.40209 17.4755 8.78965 16.7898 9.45011C16.2228 9.96349 15.7131 10.5368 15.2698 11.1601C14.79 10.5298 14.2435 9.95307 13.6398 9.44011C12.8414 8.74457 11.8186 8.36101 10.7598 8.36011C9.91483 8.4202 9.09899 8.69399 8.38883 9.15576C7.67867 9.61754 7.09748 10.2522 6.69978 11.0001C5.59082 12.8051 5.00249 14.8816 4.99978 17.0001C4.99493 17.552 5.05534 18.1024 5.17978 18.6401C5.28021 19.1196 5.4593 19.5791 5.70978 20.0001C6.01163 20.5193 6.45228 20.9441 6.98222 21.2268C7.51217 21.5094 8.11042 21.6387 8.70978 21.6001C9.95978 21.6001 10.8998 21.0401 12.0098 19.6001C12.8414 18.4611 13.5805 17.2572 14.2198 16.0001L14.8498 14.8801C14.9098 14.7901 14.9598 14.7001 15.0098 14.6101L15.1598 14.8601L16.9498 17.8601C17.5227 18.8603 18.2107 19.7899 18.9998 20.6301C19.3315 20.9655 19.7298 21.2278 20.1689 21.4C20.6081 21.5722 21.0785 21.6506 21.5498 21.6301C22.0416 21.6492 22.5305 21.5469 22.9734 21.3324C23.4164 21.1179 23.7998 20.7977 24.0898 20.4001C24.1568 20.3115 24.2169 20.2179 24.2698 20.1201C24.3909 19.9194 24.4947 19.7086 24.5798 19.4901L24.6998 19.1401C24.8339 18.7699 24.9344 18.3884 24.9998 18.0001C25.0183 17.667 25.0183 17.3332 24.9998 17.0001C25.0422 14.8073 24.4369 12.6507 23.2598 10.8001ZM13.1398 14.3601C12.4998 15.3601 11.5698 16.8701 10.7698 17.9701C9.76978 19.3401 9.25978 19.4801 8.69978 19.4801C8.46631 19.4845 8.23603 19.4254 8.0335 19.3092C7.83097 19.1929 7.66378 19.0239 7.54978 18.8201C7.26967 18.2987 7.13497 17.7115 7.15978 17.1201C7.13741 15.3187 7.61512 13.5463 8.53978 12.0001C8.75597 11.594 9.06888 11.2475 9.45085 10.9911C9.83282 10.7347 10.2721 10.5764 10.7298 10.5301C11.1742 10.5509 11.6084 10.6702 12.0011 10.8795C12.3937 11.0887 12.7348 11.3827 12.9998 11.7401C13.3584 12.1569 13.6923 12.5943 13.9998 13.0501L13.1398 14.3601ZM21.5598 19.4801C21.0798 19.4801 20.7098 19.2901 20.1798 18.6501C19.318 17.4837 18.5298 16.2647 17.8198 15.0001L17.2998 14.1401C16.9398 13.5301 16.5898 12.9801 16.2998 12.4901C16.3505 12.3965 16.4073 12.3063 16.4698 12.2201C17.4098 10.8301 18.2398 10.0501 19.2698 10.0501C19.7907 10.096 20.2917 10.272 20.7268 10.5621C21.1619 10.8521 21.5171 11.2469 21.7598 11.7101C22.6994 13.33 23.1735 15.1779 23.1298 17.0501C23.0898 18.3601 22.7898 19.4801 21.5598 19.4801Z" fill="white"/>
</svg>
