<svg width="30" height="30" viewBox="0 0 30 30" fill="none" xmlns="http://www.w3.org/2000/svg">
<circle cx="15" cy="15" r="15" fill="#1B1B1B"/>
<path d="M14.997 10.3721C13.7707 10.3721 12.5946 10.8592 11.7274 11.7264C10.8602 12.5936 10.373 13.7697 10.373 14.9961C10.373 16.2224 10.8602 17.3986 11.7274 18.2657C12.5946 19.1329 13.7707 19.6201 14.997 19.6201C16.2234 19.6201 17.3995 19.1329 18.2667 18.2657C19.1339 17.3986 19.621 16.2224 19.621 14.9961C19.621 13.7697 19.1339 12.5936 18.2667 11.7264C17.3995 10.8592 16.2234 10.3721 14.997 10.3721ZM14.997 17.9991C14.2003 17.9991 13.4363 17.6826 12.8729 17.1192C12.3095 16.5559 11.993 15.7918 11.993 14.9951C11.993 14.1984 12.3095 13.4343 12.8729 12.8709C13.4363 12.3076 14.2003 11.9911 14.997 11.9911C15.7938 11.9911 16.5578 12.3076 17.1212 12.8709C17.6846 13.4343 18.001 14.1984 18.001 14.9951C18.001 15.7918 17.6846 16.5559 17.1212 17.1192C16.5578 17.6826 15.7938 17.9991 14.997 17.9991Z" fill="white"/>
<path d="M19.8041 11.28C20.3994 11.28 20.8821 10.7974 20.8821 10.202C20.8821 9.60666 20.3994 9.12402 19.8041 9.12402C19.2087 9.12402 18.7261 9.60666 18.7261 10.202C18.7261 10.7974 19.2087 11.28 19.8041 11.28Z" fill="white"/>
<path d="M23.531 9.106C23.2995 8.50818 22.9457 7.96528 22.4923 7.51206C22.0389 7.05883 21.4959 6.70527 20.898 6.474C20.1983 6.21136 19.4592 6.06934 18.712 6.054C17.749 6.012 17.444 6 15.002 6C12.56 6 12.247 6 11.292 6.054C10.5454 6.06856 9.80676 6.2106 9.108 6.474C8.50994 6.705 7.96676 7.05847 7.51333 7.51173C7.0599 7.96499 6.70623 8.50802 6.475 9.106C6.2123 9.80561 6.07061 10.5448 6.056 11.292C6.013 12.254 6 12.559 6 15.002C6 17.444 6 17.755 6.056 18.712C6.071 19.46 6.212 20.198 6.475 20.899C6.70688 21.4968 7.0609 22.0396 7.51444 22.4928C7.96798 22.946 8.51106 23.2996 9.109 23.531C9.80643 23.8042 10.5454 23.9564 11.294 23.981C12.257 24.023 12.562 24.036 15.004 24.036C17.446 24.036 17.759 24.036 18.714 23.981C19.4611 23.9658 20.2002 23.8241 20.9 23.562C21.4978 23.3302 22.0406 22.9763 22.494 22.523C22.9473 22.0696 23.3012 21.5268 23.533 20.929C23.796 20.229 23.937 19.491 23.952 18.743C23.995 17.781 24.008 17.476 24.008 15.033C24.008 12.59 24.008 12.28 23.952 11.323C23.9404 10.5653 23.7979 9.81525 23.531 9.106ZM22.313 18.638C22.3066 19.2143 22.2014 19.7852 22.002 20.326C21.8518 20.7149 21.6219 21.068 21.3271 21.3627C21.0322 21.6574 20.679 21.8871 20.29 22.037C19.7552 22.2354 19.1904 22.3406 18.62 22.348C17.67 22.392 17.402 22.403 14.966 22.403C12.528 22.403 12.279 22.403 11.311 22.348C10.7409 22.341 10.1763 22.2358 9.642 22.037C9.25169 21.888 8.897 21.6587 8.60089 21.364C8.30478 21.0692 8.07384 20.7156 7.923 20.326C7.72645 19.791 7.62131 19.2268 7.612 18.657C7.569 17.707 7.559 17.439 7.559 15.003C7.559 12.566 7.559 12.317 7.612 11.348C7.61846 10.772 7.72366 10.2014 7.923 9.661C8.228 8.872 8.853 8.251 9.642 7.949C10.1766 7.75114 10.741 7.64596 11.311 7.638C12.262 7.595 12.529 7.583 14.966 7.583C17.403 7.583 17.653 7.583 18.62 7.638C19.1904 7.64486 19.7554 7.75007 20.29 7.949C20.6789 8.09927 21.0321 8.3292 21.327 8.62403C21.6218 8.91886 21.8517 9.27207 22.002 9.661C22.1986 10.1959 22.3037 10.7602 22.313 11.33C22.356 12.281 22.367 12.548 22.367 14.985C22.367 17.421 22.367 17.683 22.324 18.639H22.313V18.638Z" fill="white"/>
</svg>
