<svg width="34" height="34" viewBox="0 0 34 34" fill="none" xmlns="http://www.w3.org/2000/svg">
<path d="M27.625 14.6926V27.6252C27.625 28.4706 27.2892 29.2814 26.6914 29.8792C26.0936 30.4769 25.2829 30.8127 24.4375 30.8127H9.5625C8.71712 30.8127 7.90637 30.4769 7.3086 29.8792C6.71083 29.2814 6.375 28.4706 6.375 27.6252V6.37524C6.375 5.52987 6.71083 4.71911 7.3086 4.12134C7.90637 3.52357 8.71712 3.18774 9.5625 3.18774H16.1201C16.6835 3.18783 17.2238 3.41164 17.6222 3.80997L27.0028 13.1905C27.4011 13.5889 27.6249 14.1292 27.625 14.6926Z" stroke="#D0A920" stroke-width="0.672766" stroke-linejoin="round"/>
<path d="M17 3.71899V11.6877C17 12.2513 17.2239 12.7918 17.6224 13.1903C18.0209 13.5889 18.5614 13.8127 19.125 13.8127H27.0938M11.6875 19.1252H22.3125M11.6875 24.4377H22.3125" stroke="#D0A920" stroke-width="0.672766" stroke-linecap="round" stroke-linejoin="round"/>
</svg>
