<svg width="20" height="20" viewBox="0 0 20 20" fill="none" xmlns="http://www.w3.org/2000/svg">
<path d="M19.5302 13.9301C19.3702 13.6601 18.9202 13.2401 17.8002 13.4401C17.1802 13.5501 16.5502 13.6001 15.9202 13.5701C13.5902 13.4701 11.4802 12.4001 10.0102 10.7501C8.7102 9.30012 7.9102 7.41012 7.9002 5.37012C7.9002 4.23012 8.1202 3.13012 8.5702 2.09012C9.0102 1.08012 8.7002 0.550116 8.4802 0.330116C8.2502 0.100116 7.7102 -0.219883 6.6502 0.220117C2.5602 1.94012 0.0301965 6.04012 0.330197 10.4301C0.630197 14.5601 3.5302 18.0901 7.3702 19.4201C8.2902 19.7401 9.2602 19.9301 10.2602 19.9701C10.4202 19.9801 10.5802 19.9901 10.7402 19.9901C14.0902 19.9901 17.2302 18.4101 19.2102 15.7201C19.8802 14.7901 19.7002 14.2001 19.5302 13.9301Z" fill="#D0A920"/>
</svg>
