<svg width="1354" height="96" viewBox="0 0 1354 96" fill="none" xmlns="http://www.w3.org/2000/svg">
<path d="M0.666667 86.9004C0.666667 89.8459 3.05448 92.2337 6 92.2337C8.94552 92.2337 11.3333 89.8459 11.3333 86.9004C11.3333 83.9549 8.94552 81.567 6 81.567C3.05448 81.567 0.666667 83.9549 0.666667 86.9004ZM6 86.9004C6 87.9004 6.00051 87.9004 6.00154 87.9004C6.00256 87.9004 6.0041 87.9004 6.00614 87.9004C6.01023 87.9004 6.01637 87.9004 6.02454 87.9004C6.04088 87.9004 6.06532 87.9004 6.09786 87.9004C6.1629 87.9004 6.26017 87.9004 6.3891 87.9004C6.64695 87.9004 7.0314 87.9004 7.5378 87.9004C8.5506 87.9004 10.0512 87.9004 12.0024 87.9004C15.9047 87.9004 21.6095 87.9004 28.819 87.9004C43.238 87.9004 63.6759 87.9004 87.7518 87.9004C135.903 87.9004 198.607 87.9004 256.814 87.9004V85.9004C198.607 85.9004 135.903 85.9004 87.7518 85.9004C63.6759 85.9004 43.238 85.9004 28.819 85.9004C21.6095 85.9004 15.9048 85.9004 12.0024 85.9004C10.0512 85.9004 8.55059 85.9004 7.5378 85.9004C7.0314 85.9004 6.64695 85.9004 6.3891 85.9004C6.26017 85.9004 6.1629 85.9004 6.09786 85.9004C6.06534 85.9004 6.04087 85.9004 6.02454 85.9004C6.01637 85.9004 6.01023 85.9004 6.00614 85.9004C6.0041 85.9004 6.00256 85.9004 6.00154 85.9004C6.00051 85.9004 6 85.9004 6 86.9004ZM256.814 87.9004C315.295 87.9004 356.712 66.239 394.897 44.7156C433.12 23.1709 467.978 1.86023 513.62 2.00069L513.626 0.00069952C467.356 -0.141699 432.016 21.4974 393.915 42.9733C355.777 64.4704 314.746 85.9004 256.814 85.9004V87.9004ZM513.62 2.00069C559.301 2.14128 602.933 23.4909 645.567 44.9498C688.09 66.3525 729.674 87.9004 770.932 87.9004V85.9004C730.251 85.9004 689.136 64.6398 646.467 43.1634C603.909 21.7432 559.857 0.142976 513.626 0.00069952L513.62 2.00069ZM770.932 87.9004C791.576 87.9004 814.442 82.4927 837.954 74.4244C861.472 66.3537 885.7 55.5977 909.072 44.8592C932.463 34.1122 954.978 23.392 975.141 15.3514C995.328 7.30148 1013.01 2.00069 1026.74 2.00069V0.000694752C1012.59 0.000694752 994.603 5.43737 974.401 13.4937C954.175 21.5592 931.586 32.314 908.237 43.0419C884.869 53.7783 860.72 64.4972 837.304 72.5327C813.882 80.5706 791.257 85.9004 770.932 85.9004V87.9004ZM1026.74 2.00069C1040.51 2.00069 1060.52 6.87728 1083.56 14.3751C1106.57 21.8623 1132.49 31.9234 1158.03 42.2157C1183.56 52.5014 1208.73 63.0273 1230.19 71.4148C1251.61 79.7922 1269.46 86.0919 1280.34 87.887L1280.66 85.9137C1270.04 84.1591 1252.39 77.9464 1230.91 69.5521C1209.47 61.1677 1184.35 50.6624 1158.78 40.3606C1133.23 30.0655 1107.26 19.9828 1084.18 12.4732C1061.13 4.97412 1040.85 0.000694752 1026.74 0.000694752V2.00069ZM1280.34 87.887C1291.07 89.6597 1298.78 91.145 1304.87 92.3074C1310.94 93.4682 1315.44 94.3137 1319.7 94.7938C1328.27 95.7585 1335.88 95.2421 1353.63 92.9921L1353.37 91.0079C1335.62 93.2579 1328.23 93.7415 1319.92 92.8063C1315.75 92.3364 1311.34 91.507 1305.24 90.3429C1299.16 89.1804 1291.43 87.6909 1280.66 85.9137L1280.34 87.887Z" fill="white"/>
</svg>
